<svg width="629" height="593" viewBox="0 0 629 593" fill="none" xmlns="http://www.w3.org/2000/svg">
<g clip-path="url(#clip0_70_92)">
<path d="M192.308 97.1543C191.657 95.7344 165.535 106.407 162.367 107.723C132.275 120.195 -9.2501 192.176 0.478693 288.207C8.54786 367.844 115.242 410.919 121.246 413.254C134.439 398.983 155.359 379.765 185.227 363.902C226.296 342.089 264.451 337.159 286.51 336.014C288.191 331.958 290.735 326.913 294.59 321.629C299.205 315.304 304.126 310.811 307.981 307.794C235.91 312.402 183.822 295.592 153.991 282.72C123.015 269.354 89.713 254.447 83.9954 225.462C78.5067 197.637 101.039 170.072 111.668 157.075C129.856 134.825 155.135 119.425 166.352 112.591C179.832 104.378 192.776 98.1685 192.308 97.1543Z" fill="url(#paint0_linear_70_92)"/>
<path d="M310.01 149.216C351.228 149.216 384.641 115.813 384.641 74.608C384.641 33.4032 351.228 0 310.01 0C268.793 0 235.379 33.4032 235.379 74.608C235.379 115.813 268.793 149.216 310.01 149.216Z" fill="url(#paint1_linear_70_92)"/>
<path d="M629 71.0454L588.706 232.609C550.858 215.107 502.339 197.091 444.361 185.576C412.506 179.252 382.945 175.913 356.469 174.399C362.905 166.936 369.881 159.665 377.446 152.654C458.034 77.9887 566.299 69.5995 629 71.0454Z" fill="url(#paint2_linear_70_92)"/>
<path d="M35.2628 387.941C37.5051 394.406 41.4903 403.84 48.6542 413.67C67.0609 438.911 93.2922 448.668 126.859 460.661C140.994 465.711 160.78 471.812 185.253 476.306C185.242 479.26 185.565 489.324 193.02 498.384C198.68 505.259 205.543 508.032 208.612 509.061C211.65 511.579 215.095 514.2 218.96 516.806C223.174 519.645 227.222 522.017 230.973 523.999H195.439C188.01 526.037 135.766 539.445 88.5111 506.513C51.0058 480.378 30.7418 434.89 35.2628 387.941Z" fill="url(#paint3_linear_70_92)"/>
<path d="M588.982 275.059C572.183 250.115 548.251 238.907 529.397 230.97C423.421 186.361 338.895 180.729 338.895 180.729C237.336 173.458 178.666 192.743 169.411 170.909C164.401 159.093 176.866 142.325 188.686 129.608C152.029 145.575 131.172 166.962 120.221 180.609C110.44 192.795 98.7082 207.81 102.995 221.822C107.178 235.485 124.534 241.539 135.043 244.727C203.961 265.661 268.145 251.998 346.48 268.329C391.118 277.633 412.053 291.187 417.433 294.147C420.591 295.884 482.917 331.308 483.292 387.509C483.5 418.601 464.698 447.783 459.662 455.606C457.628 458.758 449.959 470.413 435.642 484.393C421.787 497.921 395.041 520.15 351.459 535.3V521.523C359.913 518.98 391.014 508.526 409.962 476.81C420.809 458.648 423.14 441.105 423.66 431.281C426.511 429.538 431.448 425.997 435.402 419.807C436.864 417.519 441.073 410.149 441.073 401.708C441.073 384.16 426.844 369.935 409.291 369.935C391.071 369.935 377.919 385.814 377.508 401.708C377.201 413.478 383.887 424.774 394.77 431.281C395.108 435.655 395.884 452.485 384.225 468.515C372.524 484.601 356.188 489.027 351.932 490.041V366.82C352.749 366.3 369.262 355.331 368.534 336.847C367.904 321.015 354.841 305.074 336.751 305.074C318.834 305.074 305.354 320.708 304.969 336.847C304.678 348.934 311.753 360.506 323.157 366.82V433.99H286.63V409.312C287.592 408.63 299.844 399.607 299.163 385.112C298.554 372.229 287.925 359.107 273.145 359.102C258.453 359.102 247.616 372.073 247.132 385.112C246.575 399.914 259.587 408.797 260.367 409.312V508.058C256.569 507.475 238.116 504.24 225.333 487.212C214.189 472.369 214.476 456.521 214.704 452.085C215.485 451.575 232.398 440.221 231.457 421.243C230.671 405.354 217.618 389.226 199.425 389.22C181.491 389.22 167.84 404.896 167.392 421.243C167.049 433.803 174.525 445.828 186.543 452.085C186.33 459.558 187.105 467.844 189.685 476.477C201.854 517.175 244.713 533.756 252.517 536.632C232.461 543.149 205.309 549.712 172.751 551.34C130.381 553.462 95.4722 546.399 72.019 539.659C109.363 561.534 176.715 593.588 262.464 592.995C427.135 591.861 605.432 471.464 607.388 347.207C607.857 317.556 598.201 292.628 588.982 275.059ZM393.064 401.999C393.064 392.955 400.399 385.621 409.447 385.621C418.494 385.621 425.83 392.955 425.83 401.999C425.83 411.044 418.494 418.377 409.447 418.377C400.399 418.377 393.064 411.044 393.064 401.999ZM199.893 440.596C189.665 440.596 181.372 432.305 181.372 422.08C181.372 411.855 189.665 403.565 199.893 403.565C210.121 403.565 218.414 411.855 218.414 422.08C218.414 432.305 210.121 440.596 199.893 440.596ZM273.103 399.201C265.601 399.201 259.519 393.121 259.519 385.621C259.519 378.122 265.601 372.042 273.103 372.042C280.605 372.042 286.687 378.122 286.687 385.621C286.687 393.121 280.605 399.201 273.103 399.201ZM323.407 543.404L286.708 550.654C286.708 550.654 286.666 462.169 286.708 462.211H323.407V543.404ZM336.663 354.384C326.861 354.384 318.917 346.442 318.917 336.644C318.917 326.845 326.861 318.903 336.663 318.903C346.464 318.903 354.409 326.845 354.409 336.644C354.409 346.442 346.464 354.384 336.663 354.384Z" fill="url(#paint4_linear_70_92)"/>
</g>
<defs>
<linearGradient id="paint0_linear_70_92" x1="5.72704e-05" y1="255.139" x2="307.981" y2="255.139" gradientUnits="userSpaceOnUse">
<stop stop-color="#EB6003"/>
<stop offset="1" stop-color="#FFC11F"/>
</linearGradient>
<linearGradient id="paint1_linear_70_92" x1="316.623" y1="58.0793" x2="261.239" y2="196.681" gradientUnits="userSpaceOnUse">
<stop offset="0.333" stop-color="#0089D4"/>
<stop offset="1" stop-color="#024885"/>
</linearGradient>
<linearGradient id="paint2_linear_70_92" x1="473.147" y1="151.754" x2="739.778" y2="151.754" gradientUnits="userSpaceOnUse">
<stop offset="0.13" stop-color="#2B7F00"/>
<stop offset="0.307" stop-color="#279126"/>
<stop offset="0.493" stop-color="#25A047"/>
<stop offset="0.671" stop-color="#23AB5F"/>
<stop offset="0.836" stop-color="#22B26E"/>
<stop offset="0.975" stop-color="#22B573"/>
</linearGradient>
<linearGradient id="paint3_linear_70_92" x1="34.6385" y1="458.175" x2="230.968" y2="458.175" gradientUnits="userSpaceOnUse">
<stop offset="0.13" stop-color="#2B7F00"/>
<stop offset="0.307" stop-color="#279126"/>
<stop offset="0.493" stop-color="#25A047"/>
<stop offset="0.671" stop-color="#23AB5F"/>
<stop offset="0.836" stop-color="#22B26E"/>
<stop offset="0.975" stop-color="#22B573"/>
</linearGradient>
<linearGradient id="paint4_linear_70_92" x1="410.851" y1="63.0775" x2="280.961" y2="582.31" gradientUnits="userSpaceOnUse">
<stop offset="0.288462" stop-color="#0089D4"/>
<stop offset="0.620192" stop-color="#034E9B"/>
<stop offset="1" stop-color="#024885"/>
</linearGradient>
<clipPath id="clip0_70_92">
<rect width="629" height="593" fill="white"/>
</clipPath>
</defs>
</svg>
